<?xml version="1.0"?><svg version="1.2" baseProfile="tiny-ps" viewBox="0 0 300 300" xmlns="http://www.w3.org/2000/svg" xmlns:xlink="http://www.w3.org/1999/xlink"><title>Mailtuned</title><g><g fill="#fff" transform="matrix(.1 0 0 -.1 0 300)"><path d="M0 1500V0h3000v3000H0V1500z"/></g><g fill="#eac9cd" transform="matrix(.1 0 0 -.1 0 300)"><path d="M2440 2466c-141-82-276-161-865-501-225-130-503-291-618-357l-207-120-6-25-7-25 17-16 17-17 271-91 272-90 93-279 93-279 12-8c7-4 23-8 35-8h23l136 182c76 101 139 185 141 187 2 3 99-37 216-87l212-92h54l9 17c5 10 74 384 152 830l143 813-18 20c-10 11-25 20-34 20s-72-33-141-74zM376 918c-24-34-20-46 37-99 54-51 66-56 98-39l19 11v56l-50 47-49 46h-40l-15-22zm245-202-12-15 3-28 3-28 79-47c44-27 88-48 97-48h19l16 25 16 24-6 19-7 19-78 47-78 46h-20c-11 0-26-6-32-14zm758-86-56-29-6-22-6-22 10-18c5-10 18-20 29-24l19-6 38 17c21 10 50 26 66 36l27 19v48l-22 15c-29 21-33 20-99-14zm-421-72c-21-21-22-37-5-59l12-16 53-12c29-6 75-11 101-11h48l16 18 17 19v43l-22 14-23 14-89 4-89 5-19-19z"/></g><g fill="#d5828c" transform="matrix(.1 0 0 -.1 0 300)"><path d="M1675 2019c-495-286-909-529-919-539l-20-19 12-25 11-24 279-93 278-93 93-277 92-277 15-13 15-12 24 9 23 9 135 182 136 181 217-94c120-52 225-94 235-94 9 0 22 7 29 15l12 14 139 788c76 433 141 800 145 815l5 27-20 20c-12 12-24 21-28 21-5 0-413-234-908-521zM388 929l-18-10v-55l43-41c23-22 49-43 58-46l17-5 21 14 21 15v46l-50 47c-51 48-63 52-92 35zm238-215c-9-8-16-24-16-34v-19l35-28c19-15 58-40 85-55l51-27 22 8 22 8v66l-78 48c-86 53-98 57-121 33zm751-90c-52-27-62-42-53-78l6-24 20-5 20-5 60 29 59 30 6 19 6 19-11 21-11 20h-27l-27-1-48-25zm-415-66c-7-7-12-22-12-34v-22l13-11c8-6 47-15 88-21l74-11 27 7 28 6 11 19 10 20-15 23-14 23-78 6c-105 9-118 9-132-5z"/></g><g fill="#e32137" transform="matrix(.1 0 0 -.1 0 300)"><path d="M2520 2506c-19-13-168-100-330-194-162-93-551-319-865-500l-570-330-3-21-4-22 12-14 11-14 274-91 274-91 93-281 93-280 17-9 17-9 15 6c9 4 75 86 148 183 72 97 134 180 138 184l8 9 224-97 224-96 17 7 17 6 9 37c6 20 71 385 146 811s138 777 140 780c1 3-1 15-6 28l-8 22-28-1h-28l-35-23zM382 918c-7-7-12-21-12-33v-21l43-42 43-42h53l11 19c16 31 13 39-37 86l-47 45h-21c-12 0-26-5-33-12zm250-204-23-16 3-21 3-22 65-43c36-23 76-45 89-49l24-6 16 10 16 10v56l-80 48c-44 27-82 49-85 49s-16-7-28-16zm743-92-50-27-3-23-4-23 12-15 12-14h22c11 0 44 13 71 28l50 27 3 23 4 23-12 15-12 14-22-1c-11 0-43-12-71-27zm-414-66-13-16 6-24 6-25 38-10c20-6 66-11 102-11h66l12 12c16 16 15 53 0 65l-13 10-96 7-96 7-12-15z"/></g><g fill="#6b252c" transform="matrix(.1 0 0 -.1 0 300)"><path d="M2384 2353c-93-98-212-223-264-278-53-55-183-192-290-305-198-210-335-354-448-471l-64-67 92-278 92-279 16-12c21-17 26-16 51 4l21 18 43 210 43 210 161 230c88 127 240 345 338 485 340 487 442 635 447 650 3 8 2 25-3 38l-8 22h-58l-169-177zM382 918c-7-7-12-21-12-33v-21l43-42 43-42h53l11 19c16 31 13 39-37 86l-47 45h-21c-12 0-26-5-33-12zm250-204-23-16 3-21 3-22 65-43c36-23 76-45 89-49l24-6 16 10 16 10v56l-80 48c-44 27-82 49-85 49s-16-7-28-16zm743-92-50-27-3-23-4-23 12-15 12-14h22c11 0 44 13 71 28l50 27 3 23 4 23-12 15-12 14-22-1c-11 0-43-12-71-27zm-414-66-13-16 6-24 6-25 38-10c20-6 66-11 102-11h66l12 12c16 16 15 53 0 65l-13 10-96 7-96 7-12-15z"/></g><g fill="#020101" transform="matrix(.1 0 0 -.1 0 300)"><path d="M2548 2518c-8-7-62-62-118-123-57-60-147-155-199-210-53-55-172-181-266-280-93-99-213-225-266-280-52-55-159-167-236-249l-141-148 90-272c50-149 95-277 101-283l9-13h46l9 13c6 6 28 106 51 221l42 208 55 82c31 44 245 351 475 681l420 600v21c0 39-40 57-72 32zM382 918c-7-7-12-19-12-28v-16l48-47 48-47h15c16 0 49 30 49 44 0 4-21 29-46 56l-47 50h-21c-12 0-27-5-34-12zm245-205c-4-3-7-19-7-34v-27l48-30c26-17 64-38 85-48l38-18 17 10c9 6 18 20 20 32l3 20-23 17c-13 9-47 32-76 51l-54 34h-22c-13 0-26-3-29-7zm756-91-53-26-5-17c-8-24 4-47 27-55l20-6 57 29 56 29 3 22 4 23-12 15c-17 20-37 17-97-14zm-418-68c-20-20-19-37 3-57l18-17 87-6 86-7 16 13 15 12v47l-17 9c-10 5-57 12-105 15l-88 6-15-15z"/></g></g></svg>