<?xml version="1.0"?><svg version="1.2" baseProfile="tiny-ps" viewBox="0 0 300 300" xmlns="http://www.w3.org/2000/svg" xmlns:xlink="http://www.w3.org/1999/xlink"><title>Sleep Gift</title><g><g fill="#fff" transform="matrix(.1 0 0 -.1 0 300)"><path d="M0 1500V0h3000v3000H0V1500z"/></g><g fill="#d6d3e7" transform="matrix(.1 0 0 -.1 0 300)"><path d="m383 1910-32-19-17-32-16-32 6-35 5-35 22-23 22-24 56-21c31-11 61-25 68-31l13-10v-47l-22-15c-32-23-45-20-84 20l-36 35-15-3c-9-2-20-10-26-19l-10-16 7-26 6-26 32-22 32-23 55-4 56-3 33 21 33 20 15 37 16 36-7 35-6 34-23 23-22 22-60 22c-32 12-64 29-71 37l-12 16 6 16c7 21 32 42 50 42 8 0 29-15 48-34l34-34 21 5 20 5 6 23 6 23-17 25-16 25-34 16-33 16h-77l-32-20zm262 8c-3-8-4-103-3-213l3-200h60v420l-28 3-27 3-5-13zm159-112c-17-8-39-24-47-37l-16-22 10-19 10-18h17c9 0 28 9 42 20l25 20h30c17 0 37-5 45-10l15-10-35-27c-92-73-150-125-150-133 0-19 39-49 78-61l40-12 35 7c19 4 50 17 68 29l34 22 17 35 18 35v82l-22 33c-13 18-35 42-50 53l-27 20-53 4-53 3-31-14zm330 0c-17-8-39-24-47-37l-16-22 10-19 10-18h15c8 0 32 10 54 22l38 22 29-10 28-9-5-10c-3-6-41-39-85-75l-80-66v-37l28-21 28-21h128l28 21c15 11 38 36 51 54l22 33v94l-22 33c-13 18-35 42-50 53l-27 20-53 4-53 3-31-14zm286-5-10-20v-680l16-15c19-19 36-20 52-4l12 12v424l42-15 42-14 38 6 39 7 30 25c16 14 36 38 44 54l15 28v96l-19 35-18 35-39 22-39 23h-76l-28-15-29-14-12 14c-7 8-21 15-31 15h-18l-11-19zm195-61 26-10 15-36 15-35-7-22c-9-29-34-57-61-68l-22-8-31 10-31 11-14 29c-8 15-15 40-15 54v27l29 29 29 29h21c11 0 31-4 46-10zm140-240c-17-5-49-25-72-45l-41-35-17-45-17-44 4-61 4-60 30-43 30-42 44-25 45-25h120l48 28 47 28 26 39 26 40 5 43 5 43-15 12-15 13-87-3-88-3-11-17-11-18 11-17 11-18 58-5 57-5-22-28c-12-15-36-35-53-43l-30-16-40 5-39 5-25 24c-34 31-53 71-53 108v32l17 35 16 35 31 19 31 19h38c42 0 70-12 104-42l21-20 20 6c11 4 23 14 26 23l6 16-14 22c-8 13-31 33-51 45l-36 22-57 4-57 3-30-9zm341-12-16-22 14-21c7-11 21-21 30-23l17-4 14 12 15 12v22c0 26-18 46-41 46h-18l-15-22zm233-1-34-22-17-34-17-34-23-11-23-12v-39l23-10 22-10v-214l16-15c8-9 19-16 24-16s16 7 24 16l16 15v218l41 3 42 3 10 17 11 16-13 16-13 16h-79l11 20 10 20 32 8 31 8 11 16 10 16-13 16-13 16h-55l-34-23zm187-33-16-15v-49h-14c-7 0-19-6-25-14l-12-15 11-20c6-12 17-21 24-21h13l6-74 5-74 16-29c18-36 52-59 98-68l34-7 13 16 13 15-4 17-3 17-34 12c-18 6-39 19-47 30l-14 19v125l41 3 42 3 10 16 10 16-6 17-6 16h-91v56l-12 12c-16 16-33 15-52-4zm-1303-80c-10-15-34-45-54-67l-36-40-54-4-54-4-31 20-32 19-23 44-24 43h-60l-3-28-3-28 26-44 26-44 45-27c24-14 61-30 82-35l37-9 52 11 52 10 38 28 39 28 30 57 29 57-24 20c-30 25-37 24-58-7zm895 15-18-10v-288l19-11c25-13 27-13 45 6l16 15v268l-16 15c-18 19-23 19-46 5z"/></g><g fill="#aea8ce" transform="matrix(.1 0 0 -.1 0 300)"><path d="M395 1915c-16-9-38-25-47-36l-18-21v-95l20-26 20-25 65-22 65-22 10-18c14-27 13-37-10-60l-20-20h-52l-26 30-26 30h-45l-6-21-7-21 19-27c11-14 35-34 54-43l34-18h66l29 15c15 8 38 27 49 41l21 27v85l-26 31-25 30-55 18-54 17-17 19-17 18 15 27 15 27 27 3 28 3 27-30 26-31h35l12 21 11 21-19 27c-11 14-35 34-54 43l-34 18h-30c-16 0-43-7-60-15zm257 3-12-12v-384l16-13 16-13 16 11 17 10 3 193 2 192-11 14c-14 17-31 18-47 2zm148-120-45-23-3-26-3-26 17-7 16-6 33 20 32 20h26c30 0 57-9 57-19 0-4-38-38-86-76l-85-67 3-21 3-20 27-20 27-20h111l39 26 39 26 17 45 18 46-6 35-6 35-22 31-22 31-41 19c-23 10-55 19-71 19h-31l-44-22zm329-1-44-23-3-26-3-26 20-7 21-6 26 20 27 21h28c33 0 59-9 59-20 0-5-38-39-85-76l-85-67v-48l43-19c23-11 56-20 72-20h31l44 23 44 22 20 28 21 28v114l-24 34-24 33-41 19c-23 10-55 19-72 19h-31l-44-23zm303 15-12-8 2-360 3-359 24-3 24-4 8 14 9 13v417l18-8c9-4 42-10 72-12l55-3 35 23 35 23 17 35 18 35v86l-15 28c-8 16-28 40-45 54l-31 26-34 7-35 6-44-14-44-14-18 13c-21 15-25 16-42 5zm209-91 29-29v-26c0-13-4-36-10-50l-9-25-31-16-31-16-30 6-29 7-20 25-20 26v28c0 61 34 97 93 98l29 1 29-29zm116-225c-20-7-52-25-71-39l-33-26-18-38-19-38-4-52-4-53 26-54 26-53 38-26 37-26 45-10 44-10 48 10 47 10 45 40 44 39 17 44 17 43-4 24-3 24h-210l-3-19-4-20 18-13 18-13h48c26 0 48-2 48-5 0-16-37-58-61-71l-28-14h-72l-30 15-30 16-19 32-20 32v86l15 29c8 15 27 38 41 49l27 21h104l38-30 37-30 20 11 19 10-3 27-3 26-46 28-45 28-50 5-49 5-38-14zm350 2-17-9v-48l20-11 20-11 20 11 20 11v17c0 22-11 37-31 44l-15 6-17-10zm258 5c-11-3-32-14-47-24l-27-20-12-34-13-35h-17c-9 0-22-7-29-15l-12-15 6-16c3-9 15-18 26-21l20-5v-199l10-20 11-19h17c10 0 23 5 30 12l12 12v216h69l15 16 16 15-10 20-11 19h-79v8c0 5 8 16 18 25l19 17h42l11 19 10 20-16 15c-16 16-24 17-59 9zm162-44-17-10v-58l-22-3-23-3-3-27-3-27 24-6 25-7 4-85 3-85 37-34 38-34h79l6 10c3 6 3 19 0 30l-6 20h-49l-20 20-20 20v139l41 3 42 3 10 17 11 16-13 16-13 16h-78v59l-18 10-18 9-17-9zm-1676-83-13-15 7-29 6-30 36-42 37-43 40-18 41-19h110l41 19 40 18 37 44c39 45 51 74 45 106l-3 18-26 3-27 3-30-50-31-50-28-15c-29-14-57-19-105-17l-26 1-32 26c-17 15-39 43-48 63l-17 36-21 3-21 3-12-15zm1251 2-12-12v-261l9-13 8-14 24 4 24 3v300l-20 3-20 3-13-13z"/></g><g fill="#8279b4" transform="matrix(.1 0 0 -.1 0 300)"><path d="m413 1919-31-9-26-31-26-31v-69l14-28 15-27 43-18c24-10 59-25 78-34l35-17 3-18 4-18-16-24-16-25h-69l-23 30-22 30h-17c-9 0-22-6-28-14l-11-14 9-25 10-25 30-21c17-12 46-25 65-28l34-5 36 12 35 11 26 30 25 31v85l-20 26-20 25-70 27-70 27-6 24-6 25 17 19 18 20h56l23-30 22-31 21 3 20 3 3 29 4 28-23 24-23 24-35 10c-41 11-45 11-88-1zm238-3-11-14 2-192 3-193 17-10 16-11 16 13 16 13v387l-19 11c-25 13-26 13-40-4zm181-106-33-8-25-23c-29-27-31-45-5-58l19-11 26 21 27 21h70l14-12 15-13-90-70-90-70v-37l33-20 32-20h102l33 23c18 12 42 34 54 49l20 28v95l-20 33-19 33-30 18c-16 10-46 21-65 24l-35 5-33-8zm328-2c-38-10-80-44-80-64 0-6 7-17 15-24l16-13 29 21 29 22h79l9-12 10-13-88-70-89-70 3-19 2-19 28-21 28-20h105l38 23 38 24 19 41c24 53 24 80-2 132l-20 43-32 19c-18 11-48 22-67 25l-35 5-35-10zm371-4-44-16-7 12-7 12-24-4-24-3-3-358-2-358 16-6 17-6 16 10 16 10 3 216 2 216 28-15 27-14h80l35 18 35 18 23 45 23 44-4 46-4 46-22 32c-25 34-59 55-106 64l-30 6-44-15zm113-85 26-31v-70l-29-29-29-29h-60l-31 26-31 26v89l25 24 24 25h79l26-31zm91-233c-63-28-111-95-121-168l-6-43 11-43 12-42 32-37 32-36 40-18 40-19h100l41 19 40 18 31 37 30 37 12 40 12 40-6 19-6 20h-187l-11-14-11-13 6-17 6-16h118v-14c0-22-37-62-70-76l-30-13-47 6-47 5-28 30-27 31-10 38-11 37 10 37 10 37 35 31 35 30 33 6 34 7 34-16c19-9 46-24 60-33l26-16 16 6 17 6v37l-27 26c-16 15-41 32-56 37l-28 11h-57l-57-1-30-13zm359-12-7-25 11-11 10-10 22 4 23 3 10 17 11 16-13 16-13 16h-48l-6-26zm234 11-26-15-19-39-18-40-22-6-23-5v-48l25-6 24-6 3-118 3-117h50l3 118 3 117h27c15 0 37 3 50 6l22 6v46l-16 6c-9 3-29 6-45 6h-29v8c0 15 34 39 63 46l28 7-3 22-3 22-35 2-35 3-27-15zm189-32c-4-3-7-18-7-32v-26l-22-10-23-10-3-17-3-18 25-11 26-12v-128l14-34 15-35 33-20 33-20h63l6 16 6 17-11 13c-6 8-20 14-30 14h-19l-20 20-20 20v140h69l15 16c9 8 16 19 16 24 0 15-36 30-69 30h-31v19c0 11-3 26-6 35l-6 16h-22c-13 0-26-3-29-7zm-1667-78-12-15 11-31c6-18 23-48 37-67l27-34 51-24 51-24h39c21 0 56 5 77 12l39 11 38 33 38 32 19 42 19 42-11 16c-5 10-19 18-31 20l-21 3-20-39c-11-22-34-51-50-65l-30-25-41-7-40-7-44 21-43 21-27 50-27 50h-18c-10 0-24-7-31-15zm1255 3c-3-8-4-77-3-153l3-140h50v300l-23 3-22 3-5-13z"/></g><g fill="#504397" transform="matrix(.1 0 0 -.1 0 300)"><path d="m364 1886-34-34v-80l26-31 26-31 50-15c28-8 60-22 70-32l18-16v-44l-18-16-19-17h-62l-23 30-22 31-21-3-20-3-3-27-3-28 24-24 25-25 39-10 39-11 31 9c91 26 127 96 88 171l-15 30-28 13c-15 8-40 17-57 21-16 4-40 14-52 22l-23 14v49l16 15 15 16h56l26-30c31-34 39-36 57-15l12 15-6 25-7 26-32 19-32 20H398l-34-34zm283 27c-4-3-7-93-7-199v-193l19-11 20-10 15 16 16 15v179c0 98-3 185-6 194l-6 16h-22c-13 0-26-3-29-7zm142-126-34-23-3-17-3-17 16-6 16-6 43 22 42 23 25-6c13-4 31-11 39-17l15-10-35-27c-19-16-61-50-93-76l-58-49 3-16 3-17 35-17 35-18h80l35 18 35 17 23 35 24 35-4 57-4 58-25 26c-13 14-36 32-51 40l-27 14h-98l-34-23zm330 0-34-23-3-17-3-17 16-6 17-7 44 22 44 22 35-11c19-6 35-15 35-19s-40-40-90-79l-90-72v-30l33-21 32-20 64 4 63 3 40 43 40 43-4 63-4 64-24 27c-14 14-37 32-52 40l-27 14h-98l-34-23zm306 10c-3-6-4-170-3-362l3-350h50l3 223c1 122 4 222 6 222s20-7 39-15c70-29 131-14 180 45l26 30 6 44 7 44-20 44-19 45-35 21-35 22h-88l-29-15-30-16-8 16-9 15h-40l-4-13zm190-51 33-14 11-20c6-12 11-39 11-60v-40l-31-26-31-26h-64l-21 15-22 16-12 38-11 38 17 32 16 33 32 13c40 18 32 17 72 1zm119-265-40-18-31-38-31-37-11-44-11-44 6-39c3-21 16-56 28-77l21-38 43-31 44-30h143l38 24 38 23 26 39c13 21 28 54 33 73l8 35-12 16-11 16-90-3-90-3v-50l63-3 62-3v-9c0-5-14-25-31-45l-31-35-38-11-37-11-36 11-36 12-30 34-30 35-7 35-6 36 17 44 17 45 31 22 32 23h102l37-28 36-28 18 3 17 3 3 18 4 18-19 21c-10 12-36 29-58 39l-40 19h-100l-41-19zm365 3-13-16 11-16c5-10 18-19 28-21l19-3 12 17 13 18-10 18-10 19h-18c-10 0-24-7-32-16zm245 6c-26-10-62-55-70-87l-6-23h-49l3-22 3-23 22-3 22-3 3-122 3-122h50l3 122 3 122 47 3 47 3v40l-42 3-43 3v19c0 21 11 30 55 45l30 10v40l-30 2c-16 1-40-2-51-7zm172-45c-3-9-6-27-6-40v-24l-22-3-23-3v-40l21-3 22-3 4-83 4-83 23-31 22-31 39-12 38-12 17 7 16 6-3 22-3 23-26 3-27 3-18 20-18 20v72l-1 72 48 3 47 3v48l-47 3-48 3-5 35-5 35-21 3-21 3-7-16zm-1660-70-15-16 10-27c6-15 19-41 31-59l20-33 42-25 43-25 44-6 44-6 41 11c23 6 59 24 80 39l40 29 24 46 25 47-11 17-11 18h-33l-38-50-37-50-35-18-35-18-42 4-43 5-34 26-35 26-7 22c-7 25-33 58-45 58-4 0-14-7-23-15zm1249 3c-3-8-4-77-3-153l3-140h50v300l-23 3-22 3-5-13z"/></g><g fill="#28197e" transform="matrix(.1 0 0 -.1 0 300)"><path d="m388 1904-28-15-15-29c-20-38-19-68 3-105l19-30 74-30 74-31 3-36 3-37-25-16-26-17-27 6-28 7-25 30-25 30-18-7-17-6v-45l23-20c12-11 32-26 44-32l22-11h91l37 33 36 34v96l-31 28-32 29-45 11-46 12-19 25c-26 32-25 38 6 68l25 26 27-6 27-7 20-24 21-25h35l5 14 6 14-12 22c-6 11-26 30-43 40l-32 20h-40l-40-1-27-15zm267 4c-3-8-4-99-3-203l3-190h40v400l-18 3-17 3-5-13zm150-114c-16-9-35-23-42-31l-12-15 6-14c7-20 31-17 60 6l26 20h29c32 0 68-16 68-29 0-5-41-42-90-81l-91-72 4-11c2-6 15-19 29-30l26-19 43-5 44-4 44 23 45 23 18 35 18 35v82l-22 33-23 33-35 18-35 19h-40l-40-1-30-15zm323-4-38-20v-50h16c9 0 27 9 41 20l26 20h29c32 0 68-16 68-30 0-5-35-37-77-71-43-34-83-69-90-77l-12-14 5-13c3-7 21-21 39-29l33-16h77l35 18 35 17 22 34 23 34v78l-14 33-14 33-32 23-33 24-51 3-51 3-37-20zm304 8-12-12v-684l14-11 13-11 17 6 16 6v438h9c5 0 26-7 46-16l38-16 36 7c45 8 87 38 106 75l15 29v96l-20 32c-25 41-59 63-107 70l-39 5-39-16-39-17-8 16c-11 18-30 19-46 3zm214-69 23-22 6-27 6-28-15-36-15-37-36-15-35-14-25 6-25 6-25 30-25 30v70l35 35 36 36 36-6 36-6 23-22zm109-241c-16-6-44-21-61-34l-32-23-22-46-22-46 4-63 4-64 24-35c13-19 42-47 63-61l40-25 42-6 41-7 42 12 42 11 36 31c19 17 44 48 55 69l19 38v59l-16 6c-9 3-48 6-87 6h-72l-13-9-14-8 4-19 3-19 63-3c34-2 62-6 62-10s-9-21-19-38l-19-31-37-17-38-18-40 5-40 6-26 18c-14 11-34 35-43 54l-18 34v70l18 35 17 35 34 22 34 23h84l47-31 47-32 16 16 16 16-16 24-16 24-38 18-38 19-50 3-50 2-30-11zm346-7-10-18 13-18 12-17 20 4 19 3 3 24 4 24-14 8c-21 14-37 10-47-10zm244 5c-36-16-54-36-64-73l-7-27-25-6-24-6v-39l23-3 22-3v-227l15-12 15-12 15 12 15 12v227l48 3 47 3v40l-47 3c-53 3-55 7-33 40l16 22 32 8 32 8v39l-25 2c-14 2-39-3-55-11zm180-38c-2-7-5-24-7-38l-3-25-22-3c-39-6-38-46 2-53l20-4 5-87 5-86 24-26 24-25 34-12 34-11 14 6 15 5v41h-15c-8 0-25 5-38 11l-25 11-11 25-11 24v128l48 3 47 3v40l-47 3-47 3-3 37-3 37-18 3-17 3-5-13zm-1313-89c-29-53-50-76-86-93l-34-16h-37c-60 0-116 39-140 98l-14 32h-42l-5-15c-16-42 39-121 109-157l40-20 56-1h56l40 21c46 23 86 63 109 109 20 39 20 38 0 57-22 23-33 20-52-15zm900 19-12-12v-264l15-12 15-12 15 12 15 12v264l-12 12c-7 7-15 12-18 12s-11-5-18-12z"/></g></g></svg>